<svg viewBox="0 0 679 58" fill="none" xmlns="http://www.w3.org/2000/svg">
<path d="M28.3 12.1V57.2H15.8V12.1H0V1.3H44.2V12.1H28.3Z" fill="#141414"/>
<path d="M104.8 1.3V12.4H77V23.9H102V34.5H77V46.1H105.7V57.1H64.5V1.3H104.8Z" fill="#141414"/>
<path d="M146.6 36.9L160.9 1.3H174.4L151.9 57.2H141.3L118.9 1.3H132.4L146.6 36.9Z" fill="#141414"/>
<path d="M233 8.60001C238.3 13.5 241 20.3 241 29C241 37.7 238.4 44.6 233.2 49.6C228 54.7 220.1 57.2 209.4 57.2H190.3V1.3H210C220 1.3 227.6 3.70001 233 8.60001ZM223.8 41.9C226.9 39 228.4 34.8 228.4 29.3C228.4 23.8 226.9 19.6 223.8 16.6C220.7 13.6 216 12.2 209.7 12.2H202.7V46.2H210.6C216.3 46.2 220.7 44.7 223.8 41.9Z" fill="#141414"/>
<path d="M300.3 1.3V12.4H272.5V23.9H297.5V34.5H272.5V46.1H301.2V57.1H260V1.3H300.3Z" fill="#141414"/>
<path d="M342.1 36.9L356.4 1.3H369.9L347.4 57.2H336.8L314.4 1.3H327.9L342.1 36.9Z" fill="#141414"/>
<path d="M426 1.3V12.4H398.2V23.9H423.2V34.5H398.2V46.1H426.9V57.1H385.7V1.3H426Z" fill="#141414"/>
<path d="M449.2 57.2V1.3H461.7V46.1H485.5V57.2H449.2Z" fill="#141414"/>
<path d="M548.4 49.5C542.7 55 535.8 57.8 527.5 57.8C519.2 57.8 512.3 55 506.6 49.5C500.9 44 498.1 37.1 498.1 28.9C498.1 20.7 500.9 13.8 506.6 8.3C512.3 2.8 519.2 0 527.5 0C535.8 0 542.7 2.8 548.4 8.3C554.1 13.8 556.9 20.7 556.9 28.9C556.9 37.1 554 44 548.4 49.5ZM544.2 28.9C544.2 23.9 542.6 19.7 539.4 16.1C536.2 12.6 532.3 10.8 527.6 10.8C522.9 10.8 519 12.6 515.8 16.1C512.6 19.6 511 23.9 511 28.9C511 33.9 512.6 38.1 515.8 41.6C519 45.1 522.9 46.8 527.6 46.8C532.3 46.8 536.2 45.1 539.4 41.6C542.6 38.2 544.2 33.9 544.2 28.9Z" fill="#141414"/>
<path d="M613.2 6.3C617.1 9.6 619.1 14.8 619.1 21.7C619.1 28.6 617.1 33.7 613.1 36.9C609.1 40.1 602.9 41.7 594.7 41.7H587.3V57.3H574.8V1.3H594.6C603 1.3 609.2 3 613.2 6.3ZM604 28.3C605.5 26.6 606.2 24.2 606.2 20.9C606.2 17.7 605.2 15.4 603.3 14C601.4 12.6 598.3 12 594.2 12H587.1V30.8H595.5C599.7 30.8 602.5 30 604 28.3Z" fill="#141414"/>
<path d="M651.1 12.5C649.9 13.5 649.3 14.8 649.3 16.4C649.3 18 650 19.3 651.5 20.3C653 21.3 656.4 22.4 661.7 23.7C667 25 671.1 27 674.1 29.6C677 32.2 678.5 36 678.5 41C678.5 46 676.6 50.1 672.9 53.2C669.1 56.3 664.2 57.9 658.1 57.9C649.2 57.9 641.3 54.6 634.2 48.1L641.6 39C647.6 44.3 653.2 46.9 658.3 46.9C660.6 46.9 662.4 46.4 663.7 45.4C665 44.4 665.7 43.1 665.7 41.4C665.7 39.7 665 38.4 663.6 37.4C662.2 36.4 659.5 35.4 655.4 34.4C648.9 32.9 644.1 30.8 641.1 28.4C638.1 25.9 636.6 22 636.6 16.7C636.6 11.4 638.5 7.3 642.3 4.4C646.1 1.5 650.9 0.100006 656.6 0.100006C660.3 0.100006 664.1 0.7 667.8 2C671.5 3.3 674.8 5.1 677.6 7.4L671.3 16.5C666.4 12.8 661.4 11 656.3 11C653.9 11 652.3 11.5 651.1 12.5Z" fill="#141414"/>
</svg>
